<?xml version="1.0" standalone="no"?>
<!DOCTYPE svg PUBLIC "-//W3C//DTD SVG 20010904//EN"
 "http://www.w3.org/TR/2001/REC-SVG-20010904/DTD/svg10.dtd">
<svg version="1.0" xmlns="http://www.w3.org/2000/svg"
 width="501.000000pt" height="501.000000pt" viewBox="0 0 501.000000 501.000000"
 preserveAspectRatio="xMidYMid meet">
<metadata>
Created by potrace 1.14, written by Peter Selinger 2001-2017
</metadata>
<g transform="translate(0.000000,501.000000) scale(0.100000,-0.100000)"
fill="#000000" stroke="none">
<path d="M2335 3987 c-223 -116 -390 -205 -534 -284 -74 -40 -140 -73 -147
-73 -7 0 -14 -3 -16 -7 -1 -5 -70 -42 -153 -84 -238 -121 -289 -149 -300 -163
-14 -18 -14 -1138 0 -1143 26 -9 819 -414 830 -424 5 -5 17 -9 26 -9 10 0 19
-4 21 -8 2 -5 97 -55 212 -112 l208 -103 52 26 c28 14 92 48 141 75 50 26 140
74 200 106 61 32 205 109 320 171 116 62 271 144 345 183 74 39 160 84 190
100 l55 30 0 568 0 569 -500 252 c-601 303 -801 403 -806 403 -2 0 -67 -33
-144 -73z m79 -507 c-1 -195 -2 -356 -3 -358 -1 -1 -14 4 -31 13 -16 8 -33 16
-37 17 -5 0 -25 12 -45 25 -21 13 -38 20 -38 16 0 -5 -4 -3 -8 2 -4 6 -87 50
-184 99 l-177 89 -3 81 c-5 129 -4 131 55 161 29 15 93 48 142 74 50 26 128
67 175 92 47 24 87 46 90 49 3 3 16 10 30 16 20 9 26 8 31 -5 3 -9 4 -176 3
-371z m274 321 c199 -100 357 -182 366 -192 6 -5 18 -9 27 -9 10 0 19 -3 21
-7 2 -5 74 -44 161 -87 87 -43 156 -83 155 -87 -2 -4 -142 -78 -313 -165 -170
-86 -330 -167 -354 -181 l-43 -25 -77 38 -76 39 -1 368 c-1 216 3 367 8 367 5
0 62 -26 126 -59z m-943 -369 c2 -82 10 -118 30 -139 13 -13 146 -82 529 -277
l208 -106 27 29 26 28 65 -32 c220 -108 707 -359 715 -370 6 -8 10 -83 10
-190 l0 -177 -63 -34 c-34 -19 -64 -34 -65 -34 -2 0 -2 37 -2 82 1 118 -15
146 -113 196 -385 198 -691 350 -696 345 -3 -4 -6 -20 -6 -38 l0 -31 -397 199
c-219 110 -401 204 -404 209 -3 5 -5 86 -5 180 l1 172 65 37 c35 21 67 36 69
33 3 -3 6 -40 6 -82z m-250 -438 c17 -13 46 -31 65 -40 42 -20 380 -189 467
-234 35 -18 61 -36 58 -40 -2 -4 -39 -24 -82 -46 -43 -21 -89 -46 -103 -55
-14 -9 -29 -18 -35 -19 -22 -6 -360 -175 -366 -183 -3 -5 -8 -7 -10 -6 -2 2
-39 -14 -81 -34 -42 -20 -81 -37 -85 -37 -6 0 -9 206 -9 495 l1 495 35 21 c19
12 51 27 70 34 l35 12 5 -169 5 -170 30 -24z m2146 -21 c0 -203 0 -423 0 -490
0 -68 -2 -127 -5 -132 -8 -13 -128 -72 -134 -66 -3 3 -5 78 -4 168 1 149 -1
164 -20 192 -16 23 -70 54 -217 125 -108 52 -198 97 -201 100 -3 3 -25 14 -50
25 -76 33 -132 67 -123 75 4 4 145 77 313 163 168 85 325 166 350 180 25 14
55 25 68 26 l22 1 1 -367z m-1296 -384 l65 -32 0 -393 c0 -217 -3 -394 -6
-394 -7 0 -80 37 -259 129 -77 40 -160 84 -185 96 -25 13 -108 55 -185 93
-143 71 -206 104 -239 127 -18 13 -18 14 0 24 27 16 240 126 424 218 85 43
157 81 158 86 2 4 9 7 16 7 6 0 41 16 76 35 36 19 66 35 67 35 1 0 32 -14 68
-31z m473 -185 c136 -70 252 -131 258 -135 14 -11 13 -204 -1 -218 -5 -5 -68
-40 -140 -77 -71 -37 -179 -93 -239 -125 -59 -32 -116 -61 -125 -64 -15 -5
-17 24 -17 370 -1 210 3 375 8 375 4 0 120 -57 256 -126z"/>
<path d="M909 1278 c-4 -8 -7 -325 -3 -338 3 -12 20 -15 86 -14 46 1 95 5 110
7 105 20 160 140 114 249 -29 68 -97 98 -222 98 -46 0 -85 -1 -85 -2z m213
-83 c31 -23 40 -45 42 -99 1 -32 -5 -47 -30 -73 -17 -18 -42 -34 -55 -34 -13
-1 -37 -3 -54 -4 -16 -1 -35 2 -40 6 -9 6 -13 172 -6 223 2 16 116 1 143 -19z"/>
<path d="M1287 1273 c-7 -13 -3 -327 5 -338 8 -13 236 -11 250 3 7 7 6 16 -1
29 -9 17 -20 20 -91 19 -45 -1 -85 3 -89 9 -5 5 -8 26 -7 45 l1 35 78 0 c82 0
105 12 87 46 -8 13 -23 16 -80 15 -39 -1 -74 1 -78 4 -5 3 -9 22 -9 43 l-1 37
89 0 c91 0 105 6 94 40 -6 18 -15 20 -125 20 -65 0 -121 -3 -123 -7z"/>
<path d="M1640 1258 c-39 -27 -55 -71 -39 -109 10 -25 24 -33 147 -85 41 -17
52 -42 27 -60 -28 -21 -76 -17 -130 11 -45 22 -49 23 -61 7 -20 -25 -17 -40
10 -58 31 -19 112 -41 148 -39 97 6 151 96 95 160 -12 15 -54 39 -92 54 -47
18 -71 33 -73 45 -8 40 64 49 128 16 22 -11 40 -17 41 -13 0 5 3 20 5 34 4 23
-1 29 -36 43 -59 23 -130 21 -170 -6z"/>
<path d="M1910 1105 c0 -96 3 -175 8 -176 4 -1 19 -2 35 -3 l27 -3 0 179 0
178 -35 0 -35 0 0 -175z"/>
<path d="M2132 1264 c-63 -27 -103 -90 -104 -163 0 -109 91 -187 204 -175 44
6 88 24 105 46 8 10 10 85 4 131 -1 4 -14 7 -31 7 -27 0 -30 -3 -31 -32 -1
-18 0 -43 1 -55 1 -17 -7 -24 -38 -34 -35 -10 -45 -9 -79 7 -66 33 -86 107
-47 173 29 49 107 68 150 36 25 -19 27 -19 55 6 l24 20 -25 19 c-42 32 -132
39 -188 14z"/>
<path d="M2409 1278 c-7 -12 -4 -348 2 -349 56 -7 54 -12 54 103 0 59 3 109 6
113 4 3 14 -7 24 -22 25 -38 156 -193 164 -194 37 -5 51 -5 52 0 0 3 1 83 2
176 l1 170 -32 3 c-37 4 -34 12 -34 -125 0 -51 -3 -93 -7 -93 -4 0 -47 50 -95
110 -68 86 -93 110 -112 110 -13 0 -25 -1 -25 -2z"/>
<path d="M2789 1249 c0 -64 -1 -184 0 -254 l1 -70 30 -1 c17 -1 31 3 32 10 0
6 2 22 3 36 1 14 3 31 3 38 1 7 17 12 41 12 37 0 41 -3 92 -77 62 -90 111
-139 154 -153 72 -24 144 -16 202 23 36 24 41 38 18 57 -13 11 -24 9 -62 -10
-87 -43 -162 -20 -223 70 -8 12 -28 40 -43 62 l-28 40 24 21 c47 42 61 99 39
153 -21 51 -64 68 -179 72 l-103 4 -1 -33z m199 -49 c28 -26 28 -71 2 -95 -22
-20 -107 -30 -125 -15 -9 7 -12 81 -6 123 1 4 25 7 54 7 40 0 59 -5 75 -20z"/>
<path d="M3138 1183 c-4 -115 5 -188 25 -207 59 -60 166 -75 227 -33 49 33 61
80 58 217 l-3 115 -31 3 -32 3 -3 -131 c-4 -124 -5 -133 -28 -151 -32 -26 -84
-24 -117 4 -26 23 -27 26 -28 148 l-2 124 -32 3 -31 3 -3 -98z"/>
<path d="M3553 1260 c-33 -19 -54 -68 -45 -102 7 -29 49 -60 106 -79 73 -23
87 -37 73 -67 -10 -22 -16 -24 -63 -20 -31 3 -63 13 -82 26 l-31 22 -15 -21
c-19 -28 -5 -52 45 -75 73 -32 168 -22 205 23 51 63 16 137 -80 167 -30 10
-62 26 -72 38 -18 19 -18 20 1 34 25 18 55 18 106 -2 45 -18 57 -12 55 29 -2
45 -143 64 -203 27z"/>
<path d="M3820 1105 c0 -160 2 -175 18 -176 24 -1 191 -1 224 0 23 1 27 5 26
26 -1 14 -5 26 -8 26 -3 1 -44 2 -92 3 -48 1 -89 4 -92 6 -6 7 -9 30 -7 60 1
25 2 25 83 25 l83 0 0 30 0 30 -78 0 c-82 0 -96 7 -91 48 1 12 3 25 3 30 1 4
42 7 91 7 50 0 91 3 91 8 10 55 17 52 -122 52 l-129 0 0 -175z"/>
<path d="M900 770 c0 -4 77 -6 170 -6 94 0 170 4 170 8 0 4 -76 7 -170 6 -93
-1 -170 -4 -170 -8z"/>
<path d="M1250 771 c0 -6 9 -9 20 -8 11 1 20 5 20 9 0 4 -9 8 -20 8 -11 0 -20
-4 -20 -9z"/>
<path d="M1300 770 c0 -3 16 -6 35 -7 19 0 35 3 35 8 0 5 -16 8 -35 7 -19 -1
-35 -4 -35 -8z"/>
<path d="M1380 770 c0 -5 5 -10 10 -10 6 0 10 5 10 10 0 6 -4 10 -10 10 -5 0
-10 -4 -10 -10z"/>
<path d="M1410 771 c0 -6 9 -9 20 -8 11 1 20 5 20 9 0 4 -9 8 -20 8 -11 0 -20
-4 -20 -9z"/>
<path d="M1460 771 c0 -4 16 -7 35 -8 19 0 35 3 35 7 0 4 -16 8 -35 8 -19 0
-35 -3 -35 -7z"/>
<path d="M1540 770 c0 -5 5 -10 10 -10 6 0 10 5 10 10 0 6 -4 10 -10 10 -5 0
-10 -4 -10 -10z"/>
<path d="M1570 771 c0 -4 122 -7 270 -8 149 -1 270 2 270 6 0 4 -121 7 -270 7
-148 1 -270 -2 -270 -5z"/>
<path d="M2120 770 c0 -5 5 -10 10 -10 6 0 10 5 10 10 0 6 -4 10 -10 10 -5 0
-10 -4 -10 -10z"/>
<path d="M2150 768 c0 -4 9 -8 20 -8 11 0 20 4 20 9 0 6 -9 9 -20 8 -11 -1
-20 -5 -20 -9z"/>
<path d="M2200 770 c0 -5 5 -10 10 -10 6 0 10 5 10 10 0 6 -4 10 -10 10 -5 0
-10 -4 -10 -10z"/>
<path d="M2230 770 c0 -5 5 -10 10 -10 6 0 10 5 10 10 0 6 -4 10 -10 10 -5 0
-10 -4 -10 -10z"/>
<path d="M2260 770 c0 -5 5 -10 10 -10 6 0 10 5 10 10 0 6 -4 10 -10 10 -5 0
-10 -4 -10 -10z"/>
<path d="M2290 769 c0 -5 11 -9 25 -9 14 0 25 4 25 9 0 5 -11 9 -25 9 -14 0
-25 -4 -25 -9z"/>
<path d="M2350 772 c0 -5 14 -9 30 -10 17 0 30 3 30 7 0 4 -13 8 -30 9 -16 1
-30 -2 -30 -6z"/>
<path d="M2420 770 c0 -4 34 -7 75 -7 41 0 75 3 75 7 0 4 -34 7 -75 7 -41 1
-75 -3 -75 -7z"/>
<path d="M2580 770 c0 -4 16 -7 35 -7 19 1 35 4 35 8 0 4 -16 7 -35 7 -19 0
-35 -4 -35 -8z"/>
<path d="M2660 770 c0 -5 5 -10 10 -10 6 0 10 5 10 10 0 6 -4 10 -10 10 -5 0
-10 -4 -10 -10z"/>
<path d="M2690 771 c0 -6 9 -9 20 -8 11 1 20 5 20 9 0 4 -9 8 -20 8 -11 0 -20
-4 -20 -9z"/>
<path d="M2740 771 c0 -4 16 -7 35 -8 19 0 35 3 35 7 0 4 -16 8 -35 8 -19 0
-35 -3 -35 -7z"/>
<path d="M2820 770 c0 -5 5 -10 10 -10 6 0 10 5 10 10 0 6 -4 10 -10 10 -5 0
-10 -4 -10 -10z"/>
<path d="M2850 771 c0 -4 25 -8 55 -8 30 0 55 3 55 6 0 4 -25 7 -55 8 -30 0
-55 -2 -55 -6z"/>
<path d="M3500 772 c0 -4 133 -8 295 -8 162 0 295 3 295 7 0 5 -133 8 -295 8
-162 1 -295 -3 -295 -7z"/>
</g>
</svg>
